<mxfile host="app.diagrams.net" agent="Mozilla/5.0 (Macintosh; Intel Mac OS X 10_15_7) AppleWebKit/605.1.15 (KHTML, like Gecko) Version/18.3 Safari/605.1.15" version="26.0.16">
  <diagram name="Page-1" id="EvgX_mlsARBasn0YXX67">
    <mxGraphModel dx="956" dy="551" grid="1" gridSize="10" guides="1" tooltips="1" connect="1" arrows="1" fold="1" page="1" pageScale="1" pageWidth="850" pageHeight="1100" math="0" shadow="0">
      <root>
        <mxCell id="0" />
        <mxCell id="1" parent="0" />
        <mxCell id="D5LfymhE43uOESxTk_Lx-72" value="" style="rounded=1;whiteSpace=wrap;html=1;arcSize=7;fillColor=none;" vertex="1" parent="1">
          <mxGeometry x="340" y="90" width="130" height="230" as="geometry" />
        </mxCell>
        <mxCell id="D5LfymhE43uOESxTk_Lx-69" value="" style="rounded=1;whiteSpace=wrap;html=1;fillColor=none;dashed=1;" vertex="1" parent="1">
          <mxGeometry x="280" y="120" width="30" height="160" as="geometry" />
        </mxCell>
        <mxCell id="D5LfymhE43uOESxTk_Lx-3" value="DINOv2-L" style="rounded=1;whiteSpace=wrap;html=1;fillColor=#f5f5f5;strokeColor=#666666;fontColor=#333333;" vertex="1" parent="1">
          <mxGeometry x="80" y="82" width="120" height="78" as="geometry" />
        </mxCell>
        <mxCell id="D5LfymhE43uOESxTk_Lx-20" style="edgeStyle=orthogonalEdgeStyle;rounded=0;orthogonalLoop=1;jettySize=auto;html=1;entryX=0.5;entryY=1;entryDx=0;entryDy=0;shape=link;dashed=1;" edge="1" parent="1" source="D5LfymhE43uOESxTk_Lx-4" target="D5LfymhE43uOESxTk_Lx-3">
          <mxGeometry relative="1" as="geometry" />
        </mxCell>
        <mxCell id="D5LfymhE43uOESxTk_Lx-21" value="share&lt;div&gt;weights&lt;/div&gt;" style="edgeLabel;html=1;align=center;verticalAlign=middle;resizable=0;points=[];" vertex="1" connectable="0" parent="D5LfymhE43uOESxTk_Lx-20">
          <mxGeometry relative="1" as="geometry">
            <mxPoint as="offset" />
          </mxGeometry>
        </mxCell>
        <mxCell id="D5LfymhE43uOESxTk_Lx-4" value="DINOv2-L" style="rounded=1;whiteSpace=wrap;html=1;fillColor=#f5f5f5;strokeColor=#666666;fontColor=#333333;" vertex="1" parent="1">
          <mxGeometry x="80" y="240" width="120" height="80" as="geometry" />
        </mxCell>
        <mxCell id="D5LfymhE43uOESxTk_Lx-5" value="" style="rounded=0;whiteSpace=wrap;html=1;fillColor=#dae8fc;strokeColor=#6c8ebf;" vertex="1" parent="1">
          <mxGeometry x="221" y="85" width="10" height="10" as="geometry" />
        </mxCell>
        <mxCell id="D5LfymhE43uOESxTk_Lx-6" value="" style="rounded=0;whiteSpace=wrap;html=1;fillColor=#dae8fc;strokeColor=#6c8ebf;" vertex="1" parent="1">
          <mxGeometry x="221" y="97" width="10" height="10" as="geometry" />
        </mxCell>
        <mxCell id="D5LfymhE43uOESxTk_Lx-7" value="" style="rounded=0;whiteSpace=wrap;html=1;fillColor=#dae8fc;strokeColor=#6c8ebf;" vertex="1" parent="1">
          <mxGeometry x="221" y="109" width="10" height="10" as="geometry" />
        </mxCell>
        <mxCell id="D5LfymhE43uOESxTk_Lx-8" value="" style="rounded=0;whiteSpace=wrap;html=1;fillColor=#dae8fc;strokeColor=#6c8ebf;" vertex="1" parent="1">
          <mxGeometry x="221" y="121" width="10" height="10" as="geometry" />
        </mxCell>
        <mxCell id="D5LfymhE43uOESxTk_Lx-9" value="" style="rounded=0;whiteSpace=wrap;html=1;fillColor=#dae8fc;strokeColor=#6c8ebf;" vertex="1" parent="1">
          <mxGeometry x="221" y="133" width="10" height="10" as="geometry" />
        </mxCell>
        <mxCell id="D5LfymhE43uOESxTk_Lx-10" value="" style="rounded=0;whiteSpace=wrap;html=1;fillColor=#dae8fc;strokeColor=#6c8ebf;" vertex="1" parent="1">
          <mxGeometry x="221" y="145" width="10" height="10" as="geometry" />
        </mxCell>
        <mxCell id="D5LfymhE43uOESxTk_Lx-11" value="" style="rounded=0;whiteSpace=wrap;html=1;fillColor=#dae8fc;strokeColor=#6c8ebf;" vertex="1" parent="1">
          <mxGeometry x="221" y="245" width="10" height="10" as="geometry" />
        </mxCell>
        <mxCell id="D5LfymhE43uOESxTk_Lx-12" value="" style="rounded=0;whiteSpace=wrap;html=1;fillColor=#dae8fc;strokeColor=#6c8ebf;" vertex="1" parent="1">
          <mxGeometry x="221" y="257" width="10" height="10" as="geometry" />
        </mxCell>
        <mxCell id="D5LfymhE43uOESxTk_Lx-13" value="" style="rounded=0;whiteSpace=wrap;html=1;fillColor=#dae8fc;strokeColor=#6c8ebf;" vertex="1" parent="1">
          <mxGeometry x="221" y="269" width="10" height="10" as="geometry" />
        </mxCell>
        <mxCell id="D5LfymhE43uOESxTk_Lx-14" value="" style="rounded=0;whiteSpace=wrap;html=1;fillColor=#dae8fc;strokeColor=#6c8ebf;" vertex="1" parent="1">
          <mxGeometry x="221" y="281" width="10" height="10" as="geometry" />
        </mxCell>
        <mxCell id="D5LfymhE43uOESxTk_Lx-15" value="" style="rounded=0;whiteSpace=wrap;html=1;fillColor=#dae8fc;strokeColor=#6c8ebf;" vertex="1" parent="1">
          <mxGeometry x="221" y="293" width="10" height="10" as="geometry" />
        </mxCell>
        <mxCell id="D5LfymhE43uOESxTk_Lx-16" value="" style="rounded=0;whiteSpace=wrap;html=1;fillColor=#dae8fc;strokeColor=#6c8ebf;" vertex="1" parent="1">
          <mxGeometry x="221" y="305" width="10" height="10" as="geometry" />
        </mxCell>
        <mxCell id="D5LfymhE43uOESxTk_Lx-52" value="" style="rounded=0;whiteSpace=wrap;html=1;fillColor=#007FFF;strokeColor=#6c8ebf;gradientColor=#FFFF00;gradientDirection=east;" vertex="1" parent="1">
          <mxGeometry x="290" y="128.5" width="10" height="10" as="geometry" />
        </mxCell>
        <mxCell id="D5LfymhE43uOESxTk_Lx-53" value="" style="rounded=0;whiteSpace=wrap;html=1;fillColor=#007FFF;strokeColor=#6c8ebf;gradientColor=#FFFF00;gradientDirection=east;" vertex="1" parent="1">
          <mxGeometry x="290" y="140.5" width="10" height="10" as="geometry" />
        </mxCell>
        <mxCell id="D5LfymhE43uOESxTk_Lx-54" value="" style="rounded=0;whiteSpace=wrap;html=1;fillColor=#007FFF;strokeColor=#6c8ebf;gradientColor=#FFFF00;gradientDirection=east;" vertex="1" parent="1">
          <mxGeometry x="290" y="152.5" width="10" height="10" as="geometry" />
        </mxCell>
        <mxCell id="D5LfymhE43uOESxTk_Lx-55" value="" style="rounded=0;whiteSpace=wrap;html=1;fillColor=#007FFF;strokeColor=#6c8ebf;gradientColor=#FFFF00;gradientDirection=east;" vertex="1" parent="1">
          <mxGeometry x="290" y="164.5" width="10" height="10" as="geometry" />
        </mxCell>
        <mxCell id="D5LfymhE43uOESxTk_Lx-56" value="" style="rounded=0;whiteSpace=wrap;html=1;fillColor=#007FFF;strokeColor=#6c8ebf;gradientColor=#FFFF00;gradientDirection=east;" vertex="1" parent="1">
          <mxGeometry x="290" y="176.5" width="10" height="10" as="geometry" />
        </mxCell>
        <mxCell id="D5LfymhE43uOESxTk_Lx-57" value="" style="rounded=0;whiteSpace=wrap;html=1;fillColor=#007FFF;strokeColor=#6c8ebf;gradientColor=#FFFF00;gradientDirection=east;" vertex="1" parent="1">
          <mxGeometry x="290" y="188.5" width="10" height="10" as="geometry" />
        </mxCell>
        <mxCell id="D5LfymhE43uOESxTk_Lx-58" value="" style="rounded=0;whiteSpace=wrap;html=1;fillColor=#007FFF;strokeColor=#6c8ebf;gradientColor=#00CC00;gradientDirection=east;" vertex="1" parent="1">
          <mxGeometry x="290" y="201" width="10" height="10" as="geometry" />
        </mxCell>
        <mxCell id="D5LfymhE43uOESxTk_Lx-59" value="" style="rounded=0;whiteSpace=wrap;html=1;fillColor=#007FFF;strokeColor=#6c8ebf;gradientColor=#00CC00;gradientDirection=east;" vertex="1" parent="1">
          <mxGeometry x="290" y="213" width="10" height="10" as="geometry" />
        </mxCell>
        <mxCell id="D5LfymhE43uOESxTk_Lx-60" value="" style="rounded=0;whiteSpace=wrap;html=1;fillColor=#007FFF;strokeColor=#6c8ebf;gradientColor=#00CC00;gradientDirection=east;" vertex="1" parent="1">
          <mxGeometry x="290" y="225" width="10" height="10" as="geometry" />
        </mxCell>
        <mxCell id="D5LfymhE43uOESxTk_Lx-61" value="" style="rounded=0;whiteSpace=wrap;html=1;fillColor=#007FFF;strokeColor=#6c8ebf;gradientColor=#00CC00;gradientDirection=east;" vertex="1" parent="1">
          <mxGeometry x="290" y="237" width="10" height="10" as="geometry" />
        </mxCell>
        <mxCell id="D5LfymhE43uOESxTk_Lx-62" value="" style="rounded=0;whiteSpace=wrap;html=1;fillColor=#007FFF;strokeColor=#6c8ebf;gradientColor=#00CC00;gradientDirection=east;" vertex="1" parent="1">
          <mxGeometry x="290" y="249" width="10" height="10" as="geometry" />
        </mxCell>
        <mxCell id="D5LfymhE43uOESxTk_Lx-63" value="" style="rounded=0;whiteSpace=wrap;html=1;fillColor=#007FFF;strokeColor=#6c8ebf;gradientColor=#00CC00;gradientDirection=east;" vertex="1" parent="1">
          <mxGeometry x="290" y="261" width="10" height="10" as="geometry" />
        </mxCell>
        <mxCell id="D5LfymhE43uOESxTk_Lx-66" value="" style="edgeStyle=orthogonalEdgeStyle;elbow=horizontal;endArrow=classic;html=1;curved=1;rounded=0;endSize=8;startSize=8;" edge="1" parent="1">
          <mxGeometry width="50" height="50" relative="1" as="geometry">
            <mxPoint x="240" y="280" as="sourcePoint" />
            <mxPoint x="280" y="240" as="targetPoint" />
            <Array as="points">
              <mxPoint x="260" y="280" />
              <mxPoint x="260" y="240" />
            </Array>
          </mxGeometry>
        </mxCell>
        <mxCell id="D5LfymhE43uOESxTk_Lx-67" value="" style="edgeStyle=orthogonalEdgeStyle;elbow=horizontal;endArrow=classic;html=1;curved=1;rounded=0;endSize=8;startSize=8;" edge="1" parent="1">
          <mxGeometry width="50" height="50" relative="1" as="geometry">
            <mxPoint x="240" y="120.00122807017546" as="sourcePoint" />
            <mxPoint x="280" y="160.00122807017544" as="targetPoint" />
            <Array as="points">
              <mxPoint x="260" y="120.00122807017546" />
              <mxPoint x="260" y="160.00122807017544" />
            </Array>
          </mxGeometry>
        </mxCell>
        <mxCell id="D5LfymhE43uOESxTk_Lx-70" value="&lt;font style=&quot;font-size: 10px;&quot;&gt;All&lt;/font&gt;&lt;div&gt;&lt;font style=&quot;font-size: 10px;&quot;&gt;Tokens&lt;/font&gt;&lt;/div&gt;" style="text;html=1;align=center;verticalAlign=middle;whiteSpace=wrap;rounded=0;" vertex="1" parent="1">
          <mxGeometry x="265" y="285" width="60" height="30" as="geometry" />
        </mxCell>
        <mxCell id="D5LfymhE43uOESxTk_Lx-71" value="Self Attention Block" style="rounded=1;whiteSpace=wrap;html=1;fillColor=#f5f5f5;strokeColor=#666666;fontColor=#333333;" vertex="1" parent="1">
          <mxGeometry x="360" y="100" width="60" height="210" as="geometry" />
        </mxCell>
        <mxCell id="D5LfymhE43uOESxTk_Lx-73" value="" style="endArrow=classic;html=1;rounded=0;entryX=-0.009;entryY=0.478;entryDx=0;entryDy=0;entryPerimeter=0;" edge="1" parent="1" target="D5LfymhE43uOESxTk_Lx-71">
          <mxGeometry width="50" height="50" relative="1" as="geometry">
            <mxPoint x="310" y="200" as="sourcePoint" />
            <mxPoint x="360" y="150" as="targetPoint" />
          </mxGeometry>
        </mxCell>
        <mxCell id="D5LfymhE43uOESxTk_Lx-74" value="x12" style="text;html=1;align=center;verticalAlign=middle;whiteSpace=wrap;rounded=0;" vertex="1" parent="1">
          <mxGeometry x="470" y="305" width="30" height="17" as="geometry" />
        </mxCell>
        <mxCell id="D5LfymhE43uOESxTk_Lx-75" value="Global Attention Transformer" style="text;html=1;align=center;verticalAlign=middle;whiteSpace=wrap;rounded=0;" vertex="1" parent="1">
          <mxGeometry x="373" y="330" width="105" height="30" as="geometry" />
        </mxCell>
        <mxCell id="D5LfymhE43uOESxTk_Lx-83" value="" style="rounded=0;whiteSpace=wrap;html=1;fillColor=#e1d5e7;strokeColor=#9673a6;gradientDirection=east;" vertex="1" parent="1">
          <mxGeometry x="440" y="119.5" width="10" height="10" as="geometry" />
        </mxCell>
        <mxCell id="D5LfymhE43uOESxTk_Lx-84" value="" style="rounded=0;whiteSpace=wrap;html=1;fillColor=#e1d5e7;strokeColor=#9673a6;gradientDirection=east;" vertex="1" parent="1">
          <mxGeometry x="440" y="131.5" width="10" height="10" as="geometry" />
        </mxCell>
        <mxCell id="D5LfymhE43uOESxTk_Lx-85" value="" style="rounded=0;whiteSpace=wrap;html=1;fillColor=#e1d5e7;strokeColor=#9673a6;gradientDirection=east;" vertex="1" parent="1">
          <mxGeometry x="440" y="143.5" width="10" height="10" as="geometry" />
        </mxCell>
        <mxCell id="D5LfymhE43uOESxTk_Lx-86" value="" style="rounded=0;whiteSpace=wrap;html=1;fillColor=#e1d5e7;strokeColor=#9673a6;gradientDirection=east;" vertex="1" parent="1">
          <mxGeometry x="440" y="155.5" width="10" height="10" as="geometry" />
        </mxCell>
        <mxCell id="D5LfymhE43uOESxTk_Lx-87" value="" style="rounded=0;whiteSpace=wrap;html=1;fillColor=#e1d5e7;strokeColor=#9673a6;gradientDirection=east;" vertex="1" parent="1">
          <mxGeometry x="440" y="167.5" width="10" height="10" as="geometry" />
        </mxCell>
        <mxCell id="D5LfymhE43uOESxTk_Lx-88" value="" style="rounded=0;whiteSpace=wrap;html=1;fillColor=#e1d5e7;strokeColor=#9673a6;gradientDirection=east;" vertex="1" parent="1">
          <mxGeometry x="440" y="179.5" width="10" height="10" as="geometry" />
        </mxCell>
        <mxCell id="D5LfymhE43uOESxTk_Lx-89" value="" style="rounded=0;whiteSpace=wrap;html=1;fillColor=#e1d5e7;strokeColor=#9673a6;gradientDirection=east;" vertex="1" parent="1">
          <mxGeometry x="440" y="210.25" width="10" height="10" as="geometry" />
        </mxCell>
        <mxCell id="D5LfymhE43uOESxTk_Lx-90" value="" style="rounded=0;whiteSpace=wrap;html=1;fillColor=#e1d5e7;strokeColor=#9673a6;gradientDirection=east;" vertex="1" parent="1">
          <mxGeometry x="440" y="222.25" width="10" height="10" as="geometry" />
        </mxCell>
        <mxCell id="D5LfymhE43uOESxTk_Lx-91" value="" style="rounded=0;whiteSpace=wrap;html=1;fillColor=#e1d5e7;strokeColor=#9673a6;gradientDirection=east;" vertex="1" parent="1">
          <mxGeometry x="440" y="234.25" width="10" height="10" as="geometry" />
        </mxCell>
        <mxCell id="D5LfymhE43uOESxTk_Lx-92" value="" style="rounded=0;whiteSpace=wrap;html=1;fillColor=#e1d5e7;strokeColor=#9673a6;gradientDirection=east;" vertex="1" parent="1">
          <mxGeometry x="440" y="246.25" width="10" height="10" as="geometry" />
        </mxCell>
        <mxCell id="D5LfymhE43uOESxTk_Lx-93" value="" style="rounded=0;whiteSpace=wrap;html=1;fillColor=#e1d5e7;strokeColor=#9673a6;gradientDirection=east;" vertex="1" parent="1">
          <mxGeometry x="440" y="258.25" width="10" height="10" as="geometry" />
        </mxCell>
        <mxCell id="D5LfymhE43uOESxTk_Lx-94" value="" style="rounded=0;whiteSpace=wrap;html=1;fillColor=#e1d5e7;strokeColor=#9673a6;gradientDirection=east;" vertex="1" parent="1">
          <mxGeometry x="440" y="270.25" width="10" height="10" as="geometry" />
        </mxCell>
        <mxCell id="D5LfymhE43uOESxTk_Lx-95" value="" style="endArrow=classic;html=1;rounded=1;jumpStyle=none;curved=0;strokeWidth=1;" edge="1" parent="1">
          <mxGeometry width="50" height="50" relative="1" as="geometry">
            <mxPoint x="470" y="70" as="sourcePoint" />
            <mxPoint x="520" y="140" as="targetPoint" />
            <Array as="points">
              <mxPoint x="490" y="70" />
              <mxPoint x="490" y="140" />
            </Array>
          </mxGeometry>
        </mxCell>
        <mxCell id="D5LfymhE43uOESxTk_Lx-97" value="" style="rounded=1;whiteSpace=wrap;html=1;fillColor=none;dashed=1;" vertex="1" parent="1">
          <mxGeometry x="216" y="81" width="20" height="80" as="geometry" />
        </mxCell>
        <mxCell id="D5LfymhE43uOESxTk_Lx-98" value="" style="rounded=1;whiteSpace=wrap;html=1;fillColor=none;dashed=1;" vertex="1" parent="1">
          <mxGeometry x="435" y="114.5" width="20" height="80" as="geometry" />
        </mxCell>
        <mxCell id="D5LfymhE43uOESxTk_Lx-99" value="" style="endArrow=none;html=1;rounded=0;exitX=0.5;exitY=0;exitDx=0;exitDy=0;" edge="1" parent="1" source="D5LfymhE43uOESxTk_Lx-97">
          <mxGeometry width="50" height="50" relative="1" as="geometry">
            <mxPoint x="220" y="80" as="sourcePoint" />
            <mxPoint x="470" y="70" as="targetPoint" />
            <Array as="points">
              <mxPoint x="240" y="70" />
            </Array>
          </mxGeometry>
        </mxCell>
        <mxCell id="D5LfymhE43uOESxTk_Lx-103" value="" style="endArrow=none;html=1;rounded=0;exitX=0.5;exitY=0;exitDx=0;exitDy=0;" edge="1" parent="1" source="D5LfymhE43uOESxTk_Lx-98">
          <mxGeometry width="50" height="50" relative="1" as="geometry">
            <mxPoint x="480" y="100" as="sourcePoint" />
            <mxPoint x="460" y="70" as="targetPoint" />
            <Array as="points">
              <mxPoint x="445" y="80" />
            </Array>
          </mxGeometry>
        </mxCell>
        <mxCell id="D5LfymhE43uOESxTk_Lx-105" value="" style="endArrow=classic;html=1;rounded=1;curved=0;" edge="1" parent="1">
          <mxGeometry width="50" height="50" relative="1" as="geometry">
            <mxPoint x="490" y="120" as="sourcePoint" />
            <mxPoint x="520" y="240" as="targetPoint" />
            <Array as="points">
              <mxPoint x="490" y="240" />
            </Array>
          </mxGeometry>
        </mxCell>
        <mxCell id="D5LfymhE43uOESxTk_Lx-109" value="Tokens from&lt;div&gt;4 Layers&lt;/div&gt;" style="text;html=1;align=center;verticalAlign=middle;whiteSpace=wrap;rounded=0;" vertex="1" parent="1">
          <mxGeometry x="490" y="60" width="90" height="30" as="geometry" />
        </mxCell>
        <mxCell id="D5LfymhE43uOESxTk_Lx-110" value="&lt;font style=&quot;font-size: 10px;&quot;&gt;Flow&lt;/font&gt;&lt;div&gt;&lt;font style=&quot;font-size: 10px;&quot;&gt;DPT Head&lt;/font&gt;&lt;/div&gt;" style="rounded=1;whiteSpace=wrap;html=1;fillColor=#f5f5f5;strokeColor=#666666;fontColor=#333333;" vertex="1" parent="1">
          <mxGeometry x="520" y="112.13" width="80" height="53.37" as="geometry" />
        </mxCell>
        <mxCell id="D5LfymhE43uOESxTk_Lx-111" value="&lt;div&gt;&lt;font style=&quot;font-size: 10px;&quot;&gt;Covisilbe&lt;/font&gt;&lt;/div&gt;&lt;div&gt;&lt;font style=&quot;font-size: 10px;&quot;&gt;Covariance&lt;/font&gt;&lt;/div&gt;&lt;div&gt;&lt;font style=&quot;font-size: 10px;&quot;&gt;DPT&amp;nbsp;&lt;/font&gt;&lt;span style=&quot;font-size: 10px;&quot;&gt;Head&lt;/span&gt;&lt;/div&gt;" style="rounded=1;whiteSpace=wrap;html=1;fillColor=#f5f5f5;strokeColor=#666666;fontColor=#333333;" vertex="1" parent="1">
          <mxGeometry x="520" y="213" width="80" height="54.62" as="geometry" />
        </mxCell>
        <mxCell id="D5LfymhE43uOESxTk_Lx-116" value="" style="endArrow=classic;html=1;rounded=0;exitX=1;exitY=0.5;exitDx=0;exitDy=0;" edge="1" parent="1" source="D5LfymhE43uOESxTk_Lx-110">
          <mxGeometry width="50" height="50" relative="1" as="geometry">
            <mxPoint x="640" y="150" as="sourcePoint" />
            <mxPoint x="620" y="139" as="targetPoint" />
          </mxGeometry>
        </mxCell>
        <mxCell id="D5LfymhE43uOESxTk_Lx-117" value="" style="endArrow=classic;html=1;rounded=0;exitX=1;exitY=0.5;exitDx=0;exitDy=0;" edge="1" parent="1" source="D5LfymhE43uOESxTk_Lx-111">
          <mxGeometry width="50" height="50" relative="1" as="geometry">
            <mxPoint x="610" y="149" as="sourcePoint" />
            <mxPoint x="620" y="200" as="targetPoint" />
          </mxGeometry>
        </mxCell>
        <mxCell id="D5LfymhE43uOESxTk_Lx-118" value="" style="endArrow=classic;html=1;rounded=0;exitX=1;exitY=0.5;exitDx=0;exitDy=0;" edge="1" parent="1">
          <mxGeometry width="50" height="50" relative="1" as="geometry">
            <mxPoint x="600" y="243.25" as="sourcePoint" />
            <mxPoint x="620" y="280" as="targetPoint" />
          </mxGeometry>
        </mxCell>
      </root>
    </mxGraphModel>
  </diagram>
</mxfile>
